<svg id="Layer_1" data-name="Layer 1" xmlns="http://www.w3.org/2000/svg" xmlns:xlink="http://www.w3.org/1999/xlink" viewBox="0 0 1366 768"><defs><style>.cls-1{fill:url(#linear-gradient);}.cls-2{fill:#fff;}.cls-3{opacity:0.19;fill:url(#linear-gradient-2);}.cls-4{fill:url(#linear-gradient-3);}.cls-5{fill:url(#linear-gradient-4);}</style><linearGradient id="linear-gradient" x1="1425.29" y1="-358.29" x2="747.26" y2="319.74" gradientUnits="userSpaceOnUse"><stop offset="0" stop-color="#4babf9"/><stop offset="1" stop-color="#155fff"/></linearGradient><linearGradient id="linear-gradient-2" x1="1186.68" y1="937.98" x2="1003.95" y2="734.95" gradientUnits="userSpaceOnUse"><stop offset="0" stop-color="#4babf9"/><stop offset="1" stop-color="#6487d4"/></linearGradient><linearGradient id="linear-gradient-3" x1="994.15" y1="-126.49" x2="362.37" y2="33.54" xlink:href="#linear-gradient"/><linearGradient id="linear-gradient-4" x1="1224.84" y1="143.34" x2="1365.99" y2="143.34" xlink:href="#linear-gradient"/></defs><title>bg-01</title><rect class="cls-1" y="-63.86" width="1365.99" height="895.72"/><path class="cls-2" d="M1366,589.57V831.86H0V-63.86H183.43S74.6,92.5,208.34,193s569.75-6.25,644,244.35S1230.28,631.36,1366,589.57Z"/><path class="cls-3" d="M1257.33,831.86H876.15c10.21-96.24,91.63-171.21,190.59-171.21S1247.12,735.62,1257.33,831.86Z"/><path class="cls-4" d="M729.89-63.86A185.41,185.41,0,0,1,550.37,75.28,185.41,185.41,0,0,1,370.83-63.86Z"/><path class="cls-5" d="M1366,32.13V254.55a114.37,114.37,0,1,1,0-222.42Z"/></svg>