<svg id="Layer_1" data-name="Layer 1" xmlns="http://www.w3.org/2000/svg" xmlns:xlink="http://www.w3.org/1999/xlink" viewBox="0 0 1370.11 902"><defs><style>.cls-1{fill:url(#linear-gradient);}.cls-2{fill:#fff;}.cls-3{opacity:0.19;fill:url(#linear-gradient-2);}.cls-4{fill:url(#linear-gradient-3);}.cls-5{fill:url(#linear-gradient-4);}</style><linearGradient id="linear-gradient" x1="1877.17" y1="-461.85" x2="1199.14" y2="216.18" gradientTransform="translate(1622.89 764.44) rotate(180)" gradientUnits="userSpaceOnUse"><stop offset="0" stop-color="#4babf9"/><stop offset="1" stop-color="#155fff"/></linearGradient><linearGradient id="linear-gradient-2" x1="1638.57" y1="834.42" x2="1455.84" y2="631.39" gradientTransform="matrix(-1, 0, 0, -1, 1624.17, 759.21)" gradientUnits="userSpaceOnUse"><stop offset="0" stop-color="#4babf9"/><stop offset="1" stop-color="#6487d4"/></linearGradient><linearGradient id="linear-gradient-3" x1="1446.04" y1="-230.06" x2="814.26" y2="-70.02" gradientTransform="matrix(-1, 0, 0, -1, 1624.17, 759.21)" xlink:href="#linear-gradient"/><linearGradient id="linear-gradient-4" x1="1676.73" y1="39.78" x2="1817.88" y2="39.78" gradientTransform="matrix(-1, 0, 0, -1, 1624.17, 759.21)" xlink:href="#linear-gradient"/></defs><title>bg-01</title><rect class="cls-1" x="-194.99" y="36.14" width="1365.99" height="895.72" transform="matrix(1, 0, 0, 1, 194.83, -30.75)"/><path class="cls-2" d="M-195.94,281.58-197,39.29l1366-6.29,4.13,895.71-183.43.85s108.11-156.86-26.08-256.71-569.72,8.88-645.11-241.38S-60.41,239.16-195.94,281.58Z" transform="translate(197.05 -33)"/><path class="cls-3" d="M-88.39,38.79,292.79,37C283,133.32,202,208.66,103,209.12S-77.73,135-88.39,38.79Z" transform="translate(197.05 -33)"/><path class="cls-4" d="M443.18,932.07a185.39,185.39,0,0,1,359.05-1.65Z" transform="translate(197.05 -33)"/><path class="cls-5" d="M-193.36,839l-1-222.42a115.15,115.15,0,0,1,26.77-3.28A114.37,114.37,0,0,1-52.73,727.15,114.36,114.36,0,0,1-166.57,842,114.32,114.32,0,0,1-193.36,839Z" transform="translate(197.05 -33)"/></svg>