<svg id="Слой_1" data-name="Слой 1" xmlns="http://www.w3.org/2000/svg" xmlns:xlink="http://www.w3.org/1999/xlink" viewBox="0 0 3050.06 2000"><defs><style>.cls-1{fill:url(#linear-gradient);}.cls-2{fill:url(#linear-gradient-2);}.cls-3{fill:#fff;}.cls-4{fill:url(#linear-gradient-3);}.cls-5{fill:url(#linear-gradient-4);}.cls-6{fill:url(#linear-gradient-5);}.cls-7{fill:url(#linear-gradient-6);}.cls-8{fill:url(#linear-gradient-7);}.cls-9{fill:#48b1f0;}.cls-10{fill:#98a6b1;}.cls-11{fill:url(#linear-gradient-8);}.cls-12{fill:url(#linear-gradient-9);}.cls-13{fill:#385369;}.cls-14{fill:url(#linear-gradient-10);}.cls-15{fill:#fb5;}.cls-16{fill:#e09e7f;}.cls-17{fill:#323657;}.cls-18{fill:#eea987;}.cls-19{fill:#665249;}.cls-20{fill:#2e2626;}.cls-21{fill:#2f6b8c;}.cls-22{fill:#f2c344;}.cls-23{fill:#eea886;}.cls-24{fill:#a77860;}.cls-25{fill:#ffd255;}.cls-26{fill:#ffd078;}.cls-27{fill:#ffd887;}.cls-28{fill:#ffd989;}.cls-29{fill:#d6d6d6;}.cls-30{fill:#e8e8e8;}.cls-31{fill:#c2c2c2;}.cls-32{fill:#e0e0e0;}.cls-33{fill:#f5f5f5;}.cls-34{fill:#4aafff;}.cls-35{fill:#1a598c;}.cls-36{fill:#2273b5;}.cls-37{fill:#3788cc;}.cls-38{fill:#e2f3fe;}.cls-39{fill:#c5ccd1;}.cls-40{fill:#edb14f;}.cls-41{fill:#eddad3;}.cls-42{fill:#cf8c6c;}.cls-43{fill:#292c47;}.cls-44{fill:#ffbf55;}.cls-45{fill:#443c7d;}.cls-46{fill:#dedede;}.cls-47{fill:#db9c7c;}.cls-48{fill:#202338;}.cls-49{fill:#163f75;}.cls-50{fill:#5f8cc9;}.cls-51{fill:#1b4d8f;}.cls-52{fill:#3a3f47;}.cls-53{fill:#b59233;}.cls-54{fill:#5e5853;}.cls-55{fill:#91887f;}.cls-56{fill:#6e6760;}.cls-57{fill:#807066;}.cls-58{fill:#0e2d3d;}.cls-59{fill:#285173;}.cls-60{fill:#1d3b54;}.cls-61{fill:#d6c5be;}.cls-62{fill:#fae6de;}.cls-63{fill:#eb4747;}.cls-64{fill:#ffb855;}.cls-65{fill:url(#linear-gradient-11);}.cls-66{fill:#8a7272;}.cls-67{fill:#c6cad9;}.cls-68{fill:#bf9a36;}</style><linearGradient id="linear-gradient" x1="1054.1" y1="767.47" x2="1399.02" y2="1455.22" gradientUnits="userSpaceOnUse"><stop offset="0" stop-color="#40d5e6"/><stop offset="1" stop-color="#57f"/></linearGradient><linearGradient id="linear-gradient-2" x1="2341.84" y1="1723.46" x2="2512.62" y2="1723.46" xlink:href="#linear-gradient"/><linearGradient id="linear-gradient-3" x1="2467.12" y1="1818.75" x2="2621.56" y2="1818.75" xlink:href="#linear-gradient"/><linearGradient id="linear-gradient-4" x1="2480.32" y1="1841.21" x2="2596.24" y2="1841.21" xlink:href="#linear-gradient"/><linearGradient id="linear-gradient-5" x1="2438.46" y1="1747.93" x2="2573.46" y2="1747.93" xlink:href="#linear-gradient"/><linearGradient id="linear-gradient-6" x1="2407.48" y1="1941.57" x2="2532.06" y2="1941.57" gradientUnits="userSpaceOnUse"><stop offset="0" stop-color="#ff9340"/><stop offset="1" stop-color="#ffce45"/></linearGradient><linearGradient id="linear-gradient-7" x1="2407.48" y1="1941.57" x2="2532.06" y2="1941.57" gradientUnits="userSpaceOnUse"><stop offset="0" stop-color="#c97332"/><stop offset="1" stop-color="#ffce45"/></linearGradient><linearGradient id="linear-gradient-8" x1="1054.11" y1="767.47" x2="1399.03" y2="1455.22" xlink:href="#linear-gradient"/><linearGradient id="linear-gradient-9" x1="738.91" y1="649.51" x2="1118.77" y2="649.51" xlink:href="#linear-gradient"/><linearGradient id="linear-gradient-10" x1="1816.5" y1="567.19" x2="2040.17" y2="1040.33" xlink:href="#linear-gradient"/><linearGradient id="linear-gradient-11" x1="1459.15" y1="1318.14" x2="1629.93" y2="1546.28" xlink:href="#linear-gradient"/></defs><title>header</title><path class="cls-1" d="M1087.82,1656.11,945.27,1554.67l31.84-71.32A397.46,397.46,0,0,1,921,1393.71l-78.15-2.48-29.06-172.5,73-28a397,397,0,0,1,23.62-103.07l-53.44-57L958.43,888.21,1029.75,920A397.15,397.15,0,0,1,1119.41,864l2.48-78.12,172.5-29.09,27.94,73a397.12,397.12,0,0,1,103.09,23.61L1482.36,800l142.55,101.42-31.84,71.32a397.5,397.5,0,0,1,56.09,89.66l78.13,2.48,29.06,172.5-73,27.93a400.09,400.09,0,0,1-7.06,46.42l-.9,4.25-192.47-47.42.72-3.89a202.71,202.71,0,0,0-81.53-201A201.85,201.85,0,0,0,1120.65,1111c-64.52,90.66-43.24,216.93,47.42,281.46a201.07,201.07,0,0,0,61.83,29.76l3.71,1-36.91,194.91-4.28-1a395.55,395.55,0,0,1-47.66-14.5Zm-132.06-104.3,131.32,93.46,55.76-52.33,2.46.94a388.48,388.48,0,0,0,44.78,14.07l33.83-178.71a209.91,209.91,0,0,1-60.72-29.91c-94.44-67.23-116.6-198.76-49.4-293.2a210.26,210.26,0,0,1,293.2-49.4,211.17,211.17,0,0,1,85.6,205.5l176.35,43.44a390.14,390.14,0,0,0,6.26-43.75l.23-2.63,71.48-27.35L1720.14,1073l-76.5-2.43-1.07-2.41a389.8,389.8,0,0,0-57.62-92.1l-1.7-2,31.17-69.83L1483.1,810.79l-55.76,52.33-2.46-.94A388.32,388.32,0,0,0,1319,837.92l-2.63-.23L1289,766.19,1130.08,793l-2.43,76.49-2.4,1.08a388.74,388.74,0,0,0-92.11,57.62l-2,1.69L961.29,898.7,867.86,1030l52.32,55.76-.94,2.46A388.83,388.83,0,0,0,895,1194.12l-.22,2.63-71.51,27.37L850,1383l76.52,2.43,1.08,2.4A389,389,0,0,0,985.24,1480l1.69,2Z"/><path class="cls-2" d="M2356.76,1497.79c14.73-7,29.38,39.83,29.38,39.83,25,33.08,60-10.92,56.59,38.52-6,86.51,99.58,27.21,50.88,117.53s43,51.07,12.74,123.9,9,159.69-36.58,124c0,0-40.1-87.93-81.45-115.14s24.78-59.48,11.84-96.44c-18.8-53.67-64.07-51.56-31.43-109.23S2306.7,1521.73,2356.76,1497.79Z"/><path class="cls-3" d="M2484.19,1908.48c-19.74-13.89-42.84-110.63-44.22-168.25-.71-29.52-9.43-41.82-17.13-52.66-7.36-10.38-13.71-19.33-10-39.9,7.08-39.3-11.52-56.26-11.71-56.43l2.15-2.45c.83.72,20.2,18.22,12.77,59.46-3.45,19.22,2.25,27.25,9.46,37.43,7.58,10.67,17,24,17.74,54.47,1.47,61.84,25.09,153.18,42.83,165.66Z"/><path class="cls-4" d="M2491.58,1915.65a42.42,42.42,0,0,1-8.35-.91c-7.61-1.54-12.59-5.55-14.83-11.93-5.32-15.22,7-39.94,17-51.86.16-.19,16.91-20.66,15.13-49-.3-4.75-.8-9.15-1.23-13-1.26-11.23-2.17-19.34,2.65-24.76,4.25-4.77,12.46-6.84,27.44-6.91,26.27-.12,36.66-11,45-19.74,3.55-3.71,6.9-7.22,11-9.44h0c13.1-7.15,27-8.2,33-2.5,2.85,2.71,5.26,8,.53,17.91-4.32,9-9.93,14.76-14.44,19.36-6.06,6.18-10.06,10.27-8,18.42.49,1.91,1.05,3.84,1.62,5.78,4.05,13.85,8.64,29.55-15.07,40.2-5,2.27-9.61,4.06-13.66,5.65-16.54,6.5-26.53,10.42-37.81,34.22-2.18,4.61-4.11,9-6,13.2C2516.68,1900.41,2510,1915.65,2491.58,1915.65Zm95.36-184.76c-3.63,2-6.66,5.15-10.17,8.82-8.77,9.19-19.69,20.62-47.35,20.75-13.77.07-21.48,1.86-25,5.82-3.85,4.33-3,11.84-1.85,22.23.44,3.92.94,8.36,1.24,13.2,1.88,29.71-15.15,50.47-15.88,51.34-9.9,11.8-21.12,35.27-16.43,48.68,1.82,5.22,6,8.52,12.39,9.81,22.32,4.51,28.49-9.46,38.7-32.6,1.87-4.24,3.81-8.63,6-13.28,11.83-25,22.87-29.3,39.57-35.86,4-1.57,8.56-3.36,13.52-5.58,21.11-9.49,17.3-22.52,13.27-36.32-.58-2-1.15-3.94-1.65-5.88-2.54-9.93,2.47-15,8.81-21.52,4.57-4.66,9.74-9.93,13.83-18.48,2.14-4.49,3.91-10.57.16-14.13-4.93-4.67-17.47-3.39-29.16,3Z"/><path class="cls-5" d="M2483.58,1934.49l-3.26-.17c.16-3.06,4.28-75.26,33.26-96.39,31.81-23.18,41.83-48.09,46.61-64.81,5.63-19.71,34.27-25,35.48-25.19l.57,3.22c-.28,0-27.85,5.13-32.91,22.86-4.91,17.19-15.21,42.79-47.82,66.56C2487.76,1860.79,2483.62,1933.76,2483.58,1934.49Z"/><path class="cls-6" d="M2549.86,1570.65c-20.6-7.07-16.32,32.64-25,62s-96.85,12.81-59.85,86.39-46.79,24.6-21.76,88.81,2.17,132.87,29.38,115.41,15.28-98.32,43.58-107.93,32.91-20.81,4.89-46.93,73.41-52,48.38-104.78S2573.67,1578.81,2549.86,1570.65Z"/><path class="cls-3" d="M2485.22,1920.21c-2.59-11-24.72-107.72-4.07-119.41,18.2-10.31,17.75-50.39,14.91-88.24-2.51-33.5,40.52-49.16,42.35-49.81l1.09,3.07c-.42.16-42.51,15.48-40.18,46.5,2.91,38.87,3.22,80.11-16.56,91.32-15.68,8.88-1.25,86.62,5.64,115.82Z"/><polygon class="cls-7" points="2532.06 1885.77 2502.64 1997.37 2436.9 1997.37 2407.48 1885.77 2532.06 1885.77"/><path class="cls-8" d="M2532.06,1885.77s-64.76,12.16-64.76,111.6h-30.4l-29.42-111.6Z"/><path class="cls-9" d="M1285.08,1442.33v-8.41a202,202,0,0,0,188.36-127.37l7.81,3.13A210.41,210.41,0,0,1,1285.08,1442.33Z"/><path class="cls-9" d="M1285.08,1501.47v-8.42a267.28,267.28,0,0,0,167.54-58.22l5.23,6.6A275.63,275.63,0,0,1,1285.08,1501.47Z"/><path class="cls-9" d="M1482.15,1515.19l-4.71-7a344.53,344.53,0,0,0,122.69-146.81l7.7,3.39A352.87,352.87,0,0,1,1482.15,1515.19Z"/><rect class="cls-10" x="2030.15" y="555.14" width="8.41" height="209.41" transform="translate(84.39 1538.26) rotate(-42.22)"/><path class="cls-11" d="M1737.69,1151.78l-14-82.86-77.31-2.45a394,394,0,0,0-58.24-93.1l31.51-70.56-136.94-97.45-56.34,52.88a389,389,0,0,0-43.23-13.73l-34.81,187.4a206.29,206.29,0,0,1,139.43,233.46l184.39,45.43a395.51,395.51,0,0,0,7.22-48.52l72.23-27.65Zm-620.46-43.21a205.06,205.06,0,0,1,57.69-54.7L1080.83,889a392.34,392.34,0,0,0-50.4,36l-70.56-31.5-48.72,68.46-48.71,68.46,52.88,56.36a393,393,0,0,0-24.53,107l-72.26,27.66,14,82.86,14,82.86,77.31,2.44A393.83,393.83,0,0,0,982,1482.67l-31.5,70.56L1019,1602l68.48,48.71,56.34-52.88a388.14,388.14,0,0,0,49.59,15.26l35.37-186.8a205.15,205.15,0,0,1-63.13-30.36C1072.93,1329.92,1051.25,1201.27,1117.23,1108.57Z"/><path class="cls-12" d="M1079.37,707a160.48,160.48,0,0,0,10-43.58l29.41-11.25-5.69-33.73-5.68-33.74-31.47-1a160,160,0,0,0-23.72-37.89L1065,517.11l-27.87-19.84-27.87-19.83L986.36,499a160.31,160.31,0,0,0-43.58-10l-11.25-29.4-33.74,5.68-33.73,5.68-1,31.48a160,160,0,0,0-37.89,23.71L796.44,513.3,776.6,541.17,756.77,569l21.53,23a159.93,159.93,0,0,0-10,43.57l-29.41,11.26,5.68,33.73,5.68,33.73,31.48,1a159.64,159.64,0,0,0,23.71,37.89L792.63,781.9l27.87,19.84,27.87,19.83,23-21.53a160.32,160.32,0,0,0,43.57,10l11.25,29.41,33.74-5.69,33.73-5.68,1-31.47a160,160,0,0,0,37.89-23.72l28.73,12.83,19.84-27.87L1100.9,730ZM880.2,717.84a83.88,83.88,0,1,1,117-19.7A83.86,83.86,0,0,1,880.2,717.84Z"/><path class="cls-13" d="M1964,587.14a20.54,20.54,0,0,0,20.52-20.52h-4.83A15.69,15.69,0,1,1,1964,550.93h2.42V0h-4.84V546.23a20.53,20.53,0,0,0,2.42,40.91Z"/><rect class="cls-10" x="1958.43" y="427.86" width="11.55" height="117.32" transform="translate(3928.42 973.05) rotate(180)"/><polygon class="cls-10" points="1826.61 740.21 1820.38 734.55 1964.18 576.26 1969.86 582.51 1826.61 740.21"/><path class="cls-14" d="M2201.3,892.23a393.23,393.23,0,0,0,45.81-40.32L2115.24,715.25a206.24,206.24,0,0,1-304.92-1.78L1680.89,852.74a390.81,390.81,0,0,0,43.68,38.42L1709.51,967l77.56,32.33,77.56,32.3,43.25-64.12a394.41,394.41,0,0,0,109.82.29l43,64.25,77.69-32,77.7-32Z"/><polygon class="cls-15" points="2003.4 1739.69 2267.02 1739.69 2183.94 1994.84 2191.71 1997.37 2278.28 1731.52 1997.47 1731.52 1911.72 1994.84 1919.49 1997.37 2003.4 1739.69"/><polygon class="cls-15" points="2093.12 1994.84 2010.04 1739.69 2273.66 1739.69 2357.57 1997.37 2365.34 1994.84 2279.59 1731.52 1998.78 1731.52 2085.35 1997.37 2093.12 1994.84"/><rect class="cls-15" x="1978.88" y="1811.86" width="322.66" height="8.17"/><rect class="cls-15" x="1945.64" y="1900.58" width="386.04" height="8.17"/><path class="cls-16" d="M2278.44,1233.29s1.87-6.39-1-8.91c-2.42-2.14-4-6.65-4.5-8-.66-1.85-4.8-6.8-2.47-7.65s7.22,7.83,8.61,9.44,3-7.78,4.6-9.27,17.05,2,15.22,8.32-7.94,11.87-8,13a40,40,0,0,1-1.15,4.66Z"/><path class="cls-16" d="M2282.92,1210.24s6.87-19,8.39-19.87,2.52-.45,2,1.35-6.1,18.54-6.1,18.54,11.9-21.11,13-22.1c.63-.58,2.63.14,2.42,1.13s-10.82,22.59-10.82,22.59,11.15-19.69,12.31-20.25a1.56,1.56,0,0,1,2,2.15c-.73,1.52-10.05,20.37-10.05,20.37s9-13.81,10.28-13.71c.77.06,2.52.6.08,4.1s-7.32,12.33-7.32,12.33Z"/><path class="cls-16" d="M2013.52,1405.73s-6.09,2.69-9,.19c-2.44-2.12-7.12-3.1-8.56-3.41-1.92-.41-7.37-3.87-7.91-1.44s8.71,6.13,10.49,7.29-7.33,4-8.59,5.78,4.21,16.64,10.24,14,10.73-9.43,11.88-9.68a39.53,39.53,0,0,0,4.46-1.75Z"/><path class="cls-16" d="M1991.25,1413.19s-17.92,9.29-18.6,10.91-.11,2.56,1.6,1.76,17.58-8.48,17.58-8.48-19.37,14.57-20.21,15.78c-.49.7.48,2.59,1.44,2.25s21-13.69,21-13.69-18.06,13.64-18.47,14.86a1.56,1.56,0,0,0,2.39,1.65c1.41-.92,18.88-12.63,18.88-12.63s-12.51,10.75-12.25,12c.16.75.93,2.42,4.07-.45s11.28-8.88,11.28-8.88Z"/><path class="cls-17" d="M2007.09,1406.05l9.6,11.83s61.75-25.52,71.2-34.37c0,0,2.5-1,15.28-11.1h0c2.73-2.17,5.4-4.22,7.85-6l1.67-1.48h0l17.05-15.23s31-16.44,18.35-34.21c0,0-5.26-4.75-13.31-.91s-19.73,13.89-22.49,16.54-20.66,17.91-21.62,18.89c-3.57,3.62-15.73,14.45-22,19.18C2057.6,1377.51,2007.09,1406.05,2007.09,1406.05Z"/><path class="cls-18" d="M2183.7,1280.48v0a73.84,73.84,0,0,1-8.39,13.85c-10.93,14-36.39,14.36-36.77-24.11a59.55,59.55,0,0,1,2.3-18c5.22-17.08,17.47-19.92,17.47-19.92,9-.5,24.89,1.74,30.16,13.53C2192.21,1254.24,2189.5,1268.12,2183.7,1280.48Z"/><path class="cls-19" d="M2183.7,1280.48v0s-1.31.34-6-9.15c-.94-1.91-1.66-.55-2.07-1.39l-7.49-2.92s7.4-12.39-2.29-15.83c-9.88-3.51-25,1-25,1,3.24-30.56,17.47-19.92,17.47-19.92,9-.5,28.4.05,33.68,11.83C2195.73,1252.54,2189.5,1268.12,2183.7,1280.48Z"/><path class="cls-18" d="M2174.08,1264.2c.56-2.57,5.64-4.78,7.8.74s-5.07,11.39-7,10.18S2173.16,1268.46,2174.08,1264.2Z"/><path class="cls-20" d="M2076.69,1711.68s-10.51,8.58-19.34,10.5-13.47,6.43-13.54,11.67,25.42,8.7,35.53,3.41c15.09-7.89,16.63-5.51,18.3-9.45s.33-14.38.43-15.63C2098.21,1710.63,2076.69,1711.68,2076.69,1711.68Z"/><path class="cls-20" d="M2077.41,1708.83a36.06,36.06,0,0,0-1,4.37c.17.09,19.9,2.3,19.31-1.13-.49-2.79-1.18-5.82-1.18-5.82Z"/><path class="cls-20" d="M2202.23,1718.56s-6.53,9.89-14.83,11.88-11.19,5.08-11.6,10,19.29,11.41,33.12,2.73c9.08-5.69,12.47-5.37,14.3-9s.45-13.82.63-15C2224.08,1717.74,2202.23,1718.56,2202.23,1718.56Z"/><path class="cls-21" d="M2204.43,1715a36.81,36.81,0,0,0-.25,4.26c.15.1,18.38,3.32,18.27,0a25.54,25.54,0,0,0-1.16-5.86Z"/><path class="cls-22" d="M2129.19,1463.62s-24.76,61.43-31.88,82.29c-9.37,27.44-14.53,51.62-15.71,64.78-1.48,16.55-7.29,94.65-8.33,99.49s27.8,3.21,27.8,3.21,16.22-98.48,20.64-116.1c4.11-16.41,43.05-90.86,46.8-86.38s16.22,80.69,19,93.63,10.23,114.83,10.23,114.83,25.31,4.06,30.4,0c0,0-4-90.85-5.76-115.12-.67-9.25,5.85-110.71-9.79-151.63C2204.33,1431,2129.19,1463.62,2129.19,1463.62Z"/><path class="cls-17" d="M2155.91,1309.38s-21.42,4.4-24.2,6.86c-3,2.62-9,29.13-9.36,36.27s1.52,36.61,4.54,47.73-2.67,57.4-4.58,72.8c0,0,37.15,16.88,100,3.73,0,0-11-47.91-9.17-63.14,2.37-19.52,8.72-62.27,8.72-62.27s5.76-40.72.45-39.72c-17.41,3.29-39.9-2.26-39.9-2.26Z"/><path class="cls-23" d="M2151.12,1314.34s6.57,4.94,28.56-4.75a60.78,60.78,0,0,1,2.12-26.06c4.32-14.08-28.35,14.68-28.35,14.68.36.25.43,1.66.22,3.62,0,.13,0,.26,0,.39a39.64,39.64,0,0,1-.88,4.8c-.05.21-.11.42-.16.63C2151.35,1312.36,2151.12,1310.23,2151.12,1314.34Z"/><path class="cls-24" d="M2152.75,1307h0c15.75,2,24.35-15,24.6-15.45-10.79,15.72-23.72,10.65-23.72,10.65h0A39.64,39.64,0,0,1,2152.75,1307Z"/><path class="cls-23" d="M2151.21,1310.39s-5,7.5,2,8.77,21.36-.28,29.17-9.78C2182.36,1309.38,2161.78,1305.42,2151.21,1310.39Z"/><path class="cls-17" d="M2187.44,1349.73c-2.23-4.61,3.41-16.61,13-25a70.26,70.26,0,0,1,19.57-12.24c3.93-1.47,30.82-10.13,32.11-13.5,1.65-4.26,8.78-25.18,9.36-27,1.16-3.64,14.58-45,14.58-45l16.72,3.83s-12.47,59.83-14,67.5c-1,5-1.89,14-13.14,21.16-11.44,7.3-36.51,25.82-39,26.8S2197.37,1370.23,2187.44,1349.73Z"/><path class="cls-25" d="M1444.79,713.79A31.22,31.22,0,0,1,1428.62,703a23.4,23.4,0,0,1-4.73-19.25c1.81-13.22.57-27.52-.84-37.44a62.75,62.75,0,1,1,73.14,17.6c-7.19,11.5-12.33,22.32-15.28,32.19-3,13.49-18.13,21.69-33.81,18.29C1446.32,714.2,1445.55,714,1444.79,713.79ZM1487.43,551a57.61,57.61,0,0,0-60,92.59l.47.56.11.73c1.5,10.29,2.88,25.53.93,39.69l0,.19a18.32,18.32,0,0,0,3.76,15.15,26.39,26.39,0,0,0,15.49,9.49c13,2.81,25.4-3.67,27.73-14.45l0-.1,0-.09c3.14-10.54,8.63-22.06,16.32-34.24l.43-.69.76-.31a57.6,57.6,0,0,0-6-108.52Z"/><polygon class="cls-25" points="1437.8 690.46 1443.78 621.85 1455.32 636.32 1465.98 628.53 1471.57 639.11 1486.93 630.79 1464.94 696.16 1460.08 694.52 1477.91 641.52 1469.46 646.09 1464.22 636.18 1454.37 643.37 1447.78 635.1 1442.91 690.9 1437.8 690.46"/><rect class="cls-25" x="1424.23" y="708.04" width="44.5" height="17.93" transform="translate(184.65 -290.06) rotate(12.23)"/><rect class="cls-25" x="1419.8" y="690.01" width="58.82" height="28.87" transform="translate(182.06 -290.93) rotate(12.23)"/><polygon class="cls-26" points="647.71 1156.47 644.61 1155.4 670.62 1079.69 728.73 1063.6 748.72 980.6 793.47 960.23 802.8 895.76 806.04 896.23 796.46 962.47 751.53 982.92 731.46 1066.25 673.16 1082.39 647.71 1156.47"/><path class="cls-3" d="M736.8,1059.31a8.75,8.75,0,1,1-12.32-1.1A8.75,8.75,0,0,1,736.8,1059.31Z"/><path class="cls-26" d="M736.76,1072.89a10.39,10.39,0,1,1,1.3-14.63A10.4,10.4,0,0,1,736.76,1072.89Zm-11.23-13.42a7.11,7.11,0,1,0,10,.89A7.12,7.12,0,0,0,725.53,1059.47Z"/><path class="cls-3" d="M757.07,976.65a8.74,8.74,0,1,1-12.32-1.1A8.75,8.75,0,0,1,757.07,976.65Z"/><path class="cls-26" d="M757,990.23a10.39,10.39,0,1,1,1.3-14.64A10.4,10.4,0,0,1,757,990.23ZM745.8,976.81a7.11,7.11,0,1,0,10,.89A7.12,7.12,0,0,0,745.8,976.81Z"/><path class="cls-3" d="M801.13,955.72a8.75,8.75,0,1,1-12.33-1.1A8.75,8.75,0,0,1,801.13,955.72Z"/><path class="cls-26" d="M801.08,969.3a10.39,10.39,0,1,1,1.3-14.63A10.4,10.4,0,0,1,801.08,969.3Zm-11.22-13.42a7.11,7.11,0,1,0,10,.89A7.11,7.11,0,0,0,789.86,955.88Z"/><path class="cls-3" d="M678.93,1076.17a8.75,8.75,0,1,1-12.32-1.1A8.75,8.75,0,0,1,678.93,1076.17Z"/><path class="cls-26" d="M678.89,1089.75a10.39,10.39,0,1,1,1.3-14.64A10.4,10.4,0,0,1,678.89,1089.75Zm-11.23-13.42a7.11,7.11,0,1,0,10,.89A7.12,7.12,0,0,0,667.66,1076.33Z"/><rect class="cls-27" x="2313.36" y="975.58" width="140.75" height="9.87" transform="translate(4767.48 1961.03) rotate(180)"/><rect class="cls-27" x="2313.36" y="994.18" width="140.75" height="41.48" transform="translate(4767.48 2029.84) rotate(180)"/><rect class="cls-27" x="2247.24" y="1049.61" width="83.04" height="6.2" transform="translate(4577.52 2105.41) rotate(180)"/><rect class="cls-27" x="2247.24" y="1058.52" width="83.04" height="16.79" transform="translate(4577.52 2133.82) rotate(180)"/><rect class="cls-28" x="2477.23" y="922.4" width="6.2" height="116.23" transform="translate(4960.66 1961.03) rotate(180)"/><polygon class="cls-29" points="2505.63 1287.9 2404.3 1231.23 2439.13 1228.93 2505.63 1287.9"/><polygon class="cls-30" points="2505.63 1287.9 2474.45 1237.75 2448.28 1237.05 2505.63 1287.9"/><polygon class="cls-31" points="2427.6 1244.26 2425.57 1257.03 2505.63 1287.9 2427.6 1244.26"/><path class="cls-32" d="M757.66,1343a305.65,305.65,0,0,1-2.41-40.72c0-3.33,0-6.82.14-10.43l8.41.23c-.1,3.54-.14,6.94-.14,10.2a298.84,298.84,0,0,0,2.33,39.48Zm11.13-100.54-8.28-1.48a270.5,270.5,0,0,1,13.55-49.41l7.85,3A262.34,262.34,0,0,0,768.79,1242.48Zm1638.67-31.2c-.12-.13-12.16-13.71-39.22-29.28l4.2-7.3c28.42,16.36,40.85,30.47,41.36,31.06Zm-691.65-24.66c-13.14,0-26.62-.24-40.08-.71l.3-8.41q25.4.9,50.27.66l.08,8.41C1722.85,1186.61,1719.33,1186.62,1715.81,1186.62Zm61.2-1.75-.48-8.39c16.76-1,33.61-2.38,50.07-4.17l.91,8.36C1810.91,1182.48,1793.92,1183.9,1777,1184.87Zm-151.84-1.79c-16.37-1.24-33.32-2.84-50.38-4.76l.94-8.36c17,1.91,33.81,3.5,50.08,4.73Zm252.56-9.22-1.35-8.3c16.49-2.68,33.09-5.83,49.35-9.37l1.79,8.22C1911.12,1168,1894.36,1171.16,1877.73,1173.86Zm-353.11-2c-16-2.3-32.83-4.95-50-7.86l1.42-8.29c17.05,2.9,33.79,5.53,49.74,7.83ZM2323.17,1161a390.32,390.32,0,0,0-47.8-14.29l1.9-8.19a398,398,0,0,1,48.83,14.59Zm-898.24-6c-15.52-3-31.72-6.17-49.56-9.83l1.69-8.24c17.8,3.65,34,6.86,49.44,9.81Zm551.81-1.63-1.71-8.24c16.83-3.49,33.6-6.56,49.84-9.12l1.31,8.31C2010.07,1146.87,1993.44,1149.92,1976.74,1153.38ZM805,1151l-6.86-4.86a174.09,174.09,0,0,1,35.56-37.23l5.15,6.66A165.74,165.74,0,0,0,805,1151Zm1421.18-13c-16-2-32.81-3.3-49.92-3.91l.3-8.41c17.35.62,34.39,2,50.66,4Zm-150.13-.24-.86-8.37c17.18-1.75,34.21-3,50.61-3.59l.32,8.4C2109.85,1134.89,2093,1136.08,2076,1137.82Zm-750-3q-17.6-3.75-35.08-7.52l-14.26-3.07,1.76-8.22,14.27,3.06q17.47,3.76,35.07,7.52Zm-98.67-21.07c-18.24-3.82-34.4-7.1-49.4-10l1.62-8.25c15,2.94,31.22,6.23,49.5,10Zm-98.91-19.26c-17.51-3.06-33.76-5.68-49.69-8l1.22-8.33c16,2.34,32.34,5,49.92,8Zm-246.82-2.87-3.06-7.84a226.94,226.94,0,0,1,49.6-12.83l1.22,8.32A218.64,218.64,0,0,0,881.55,1091.61Zm147.25-11.53q-11.24-1.21-22.45-2.22c-9.36-.83-18.59-1.34-27.45-1.51l.16-8.41c9.05.17,18.49.69,28,1.54q11.29,1,22.62,2.24Z"/><rect class="cls-33" x="1116.88" y="1400.21" width="291.52" height="338.58" rx="19.81"/><path class="cls-34" d="M1293.86,1540.65a74.5,74.5,0,1,0-140.3,50.18q.86,2.36,1.84,4.64a74.5,74.5,0,0,0,138.46-54.82Zm-51.34,77.68a55.82,55.82,0,0,1-70-30.3c-.49-1.14-1-2.3-1.37-3.48a55.85,55.85,0,0,1,33.78-71.41,55.86,55.86,0,0,1,37.62,105.19Z"/><path class="cls-35" d="M1170.39,1549.09l-17.8-5.56a74.62,74.62,0,0,1,68.89-52.28l.56,18.64a55.92,55.92,0,0,0-51.65,39.2Z"/><path class="cls-36" d="M1172.49,1588l-17.09,7.44q-1-2.28-1.84-4.64a74.22,74.22,0,0,1-1-47.3l17.8,5.56a55.58,55.58,0,0,0,.73,35.46C1171.54,1585.73,1172,1586.89,1172.49,1588Z"/><path class="cls-37" d="M1166.94,1614a73.9,73.9,0,0,1-11.54-18.54l17.09-7.44a55.72,55.72,0,0,0,8.66,13.9Z"/><path class="cls-34" d="M1358.45,1586.16a30.82,30.82,0,1,0-26.36,55.71c.63.3,1.26.57,1.9.82a30.81,30.81,0,0,0,24.46-56.53Zm7.71,37.74a23.13,23.13,0,0,1-22.75,13.15,22.78,22.78,0,0,1-6.6-1.54c-.48-.18-1-.39-1.42-.61a23.1,23.1,0,1,1,30.77-11Z"/><path class="cls-35" d="M1324.81,1624.74l-6.84,3.58a30.84,30.84,0,0,1,4.86-35.44l5.62,5.29a23.13,23.13,0,0,0-3.64,26.57Z"/><path class="cls-36" d="M1336.81,1635.51l-2.82,7.18c-.64-.25-1.27-.52-1.9-.82a30.69,30.69,0,0,1-14.12-13.55l6.84-3.58a22.93,22.93,0,0,0,10.58,10.16C1335.86,1635.12,1336.33,1635.33,1336.81,1635.51Z"/><path class="cls-34" d="M1373.13,1533.35a30.82,30.82,0,1,0-55.71-26.36c-.3.63-.58,1.26-.83,1.9a30.82,30.82,0,0,0,56.54,24.46Zm-37.74,7.71a23.11,23.11,0,0,1-13.15-22.75,22.76,22.76,0,0,1,1.53-6.6c.19-.48.39-1,.62-1.42a23.1,23.1,0,1,1,11,30.77Z"/><path class="cls-34" d="M1334.55,1499.71l-3.59-6.84a30.87,30.87,0,0,1,35.45,4.86l-5.29,5.62a23.16,23.16,0,0,0-26.57-3.64Z"/><path class="cls-36" d="M1323.77,1511.71l-7.18-2.82c.25-.64.53-1.27.83-1.9a30.67,30.67,0,0,1,13.54-14.12l3.59,6.84a22.93,22.93,0,0,0-10.16,10.58C1324.16,1510.76,1324,1511.23,1323.77,1511.71Z"/><path class="cls-37" d="M1314.55,1517.69a30.56,30.56,0,0,1,2-8.8l7.18,2.82a22.76,22.76,0,0,0-1.53,6.6Z"/><polygon class="cls-38" points="1335.8 1665.05 1278.26 1665.05 1278.26 1663.91 1334.66 1663.91 1334.66 1642.17 1335.8 1642.17 1335.8 1665.05"/><polygon class="cls-38" points="1227.44 1665.05 1152.59 1665.05 1152.59 1663.91 1226.29 1663.91 1226.29 1628.32 1227.44 1628.32 1227.44 1665.05"/><rect class="cls-34" x="1152.59" y="1652" width="51.5" height="6.86"/><rect class="cls-34" x="1278.26" y="1652" width="30.29" height="6.86"/><rect class="cls-34" x="1140.92" y="1429.28" width="24.65" height="5.27"/><rect class="cls-34" x="1243.68" y="1449.11" width="38.24" height="5.27"/><rect class="cls-34" x="1194.23" y="1449.11" width="23.34" height="5.27"/><rect class="cls-34" x="1140.92" y="1449.11" width="46.25" height="5.27"/><rect class="cls-34" x="1173.07" y="1429.28" width="36.52" height="5.27"/><rect class="cls-34" x="1224.88" y="1449.11" width="10.03" height="5.27"/><rect class="cls-34" x="1254.63" y="1429.57" width="27.28" height="5.27"/><rect class="cls-34" x="1291.65" y="1449.11" width="23.26" height="5.27"/><rect class="cls-34" x="1218.58" y="1429.57" width="28.92" height="5.27"/><rect class="cls-3" x="1225.81" y="1696.93" width="73.66" height="73.66" rx="13.22"/><rect class="cls-39" x="1259.16" y="1719.11" width="6.97" height="29.31"/><rect class="cls-39" x="1259.16" y="1719.11" width="6.97" height="29.31" transform="translate(2996.41 471.12) rotate(90)"/><path class="cls-17" d="M1406.49,1620.32h0C1406.36,1620.39,1406.34,1620.4,1406.49,1620.32Z"/><path class="cls-40" d="M859,1622.62s-30.55,89.13-32.5,99.2c-2.14,11-26,90.23-26,90.23s-50.15-49.11-65.81-61.56S837.41,1620,859,1622.62Z"/><path class="cls-41" d="M874.91,1968.12s10.13-4.11,14.29-5.87,4.78-5.62,6.53-3,10.43,10.49,15.12,11.5,35.11,5.62,35.7,12.51-13.58,9.32-33.6,10.37-20.5,6.21-33.85,2.8C874.94,1995.32,874.91,1968.12,874.91,1968.12Z"/><path class="cls-41" d="M579.84,1855.82s5,9.33,7.14,13.17,5.94,4,3.63,6-9.06,11.19-9.54,15.82-1.77,34.55-8.38,35.85-10.43-12.17-13.53-31.43-8.15-19.18-6.24-32.45C553.51,1858.65,579.84,1855.82,579.84,1855.82Z"/><path class="cls-23" d="M915.67,1643.07s4.87-8.88,5.65-10.21,4.68-3.2,9.34-4.95,11.73-2,12.42-1.53a4.31,4.31,0,0,1,2.36,2.77,8.3,8.3,0,0,1,.2,4.23,5.09,5.09,0,0,1,1.25,4.75,4.44,4.44,0,0,1,.43,4.91s1.79,2.1.56,4a33.67,33.67,0,0,0-5.14,3c-1.24,1.11-9.62,4.45-18.15,6.42C924.59,1656.5,915.26,1659,915.67,1643.07Z"/><path class="cls-42" d="M929.61,1639.56s-.5,5-1.36,6.4,9.69,5.82,9.69,5.82S935.75,1640.33,929.61,1639.56Z"/><path class="cls-43" d="M752.83,1704.42c-8.28,6.24-19.41,30.7-27.17,49.8-.17.34-18.66,37.76-25.69,48.26-10.56,15.77-23.71,14.36-46.36,23-18.4,7-76.6,28-76.6,28l13.62,27.12s88.1-20.2,116.3-31.89c14.3-5.93,61.53-45.76,61.53-45.77h0c5.89-4.82,11.21-9.51,15.74-13.69h0c3.61-3.31,6.72-6.3,9.23-8.77,4.5-4.44,7.06-7.2,7.06-7.2S759.79,1699.17,752.83,1704.42Z"/><path class="cls-44" d="M824.46,1587.22l25,63.09s1.24,8.74,19.47,2.83c18.6-6,48.43-14,48.43-14s10.54,22.15,8.34,23.43c-6.36,3.71-57.68,22.84-79.07,28.67-17,4.63-51.79-86.43-51.79-86.43Z"/><path class="cls-43" d="M868.63,1835.52c.37-10.54-11.49-40.29-20.42-58.33h0c-14-28.82-28.26-58.81-28.26-58.81s-81.36-.05-81.22,8.67c.27,16.51,38.58,56.79,44.88,64.09l4.18-.21s15.07,14.47,21.2,25.58c9,16.22,13.4,27.47,19.27,48.65,5.26,19,41.44,108.26,41.44,108.26l33.71-11.61S868.05,1851.88,868.63,1835.52Z"/><path class="cls-45" d="M734.68,1721.83s55.53-59.23,50.75-97.52a75.43,75.43,0,0,1-.59-9.17,74.1,74.1,0,0,1,.87-11.54c3.49-22.43,17-41,33.85-50.15,0,0-.16-4.89,23.21,17.56,1.29,1.24,14.32,24.16,16.09,49.08,2.17,30.5-6.56,36.62-17.33,59.81-7.86,16.95-19.18,31.71-21.58,38.48C820,1718.38,813.7,1728.35,734.68,1721.83Z"/><path class="cls-23" d="M844.24,1551.51s-.28,1.24-.69,3.17c-.29,1.42-.65,3.21-1,5.15-1,5.26-2,11.61-1.71,14.61.51,5.6-20.69-20-20.69-20a271.76,271.76,0,0,0,5-38C826.31,1496.07,844.24,1551.51,844.24,1551.51Z"/><path class="cls-24" d="M843.58,1554.53c-.29,1.42-.68,3.36-1.05,5.3a101,101,0,0,1-14.25-17.32C831.41,1546.72,843.58,1554.53,843.58,1554.53Z"/><path class="cls-44" d="M836.56,1644.77c-.18.55-.42,1.06-.64,1.56-.77,1.77-2.79,4-4.73,7.38C814.67,1682.12,797,1721,790,1748.14c-8,31-12.25,55.45-12.25,55.45l-62-56.63s21.54-46.15,44.13-73.67c25-30.46,17.9-99.75,17.9-99.75L813.42,1557l5.32-5.82,19.51,14.63,10.67,6.92S843.73,1621.61,836.56,1644.77Z"/><rect class="cls-46" x="748.68" y="1276.82" width="11.09" height="651.99" transform="translate(2308.03 752.19) rotate(86.5)"/><rect class="cls-46" x="755.17" y="1383.04" width="11.09" height="651.99" transform="translate(2420.15 845.45) rotate(86.5)"/><rect class="cls-46" x="1018.97" y="1582.46" width="12" height="112.09" transform="translate(-98.07 65.59) rotate(-3.5)"/><rect class="cls-46" x="931.26" y="1587.82" width="12" height="112.09" transform="translate(-98.56 60.25) rotate(-3.5)"/><rect class="cls-46" x="843.55" y="1593.19" width="12" height="112.09" transform="translate(-99.05 54.91) rotate(-3.5)"/><rect class="cls-46" x="755.84" y="1598.55" width="12" height="112.09" transform="translate(-99.54 49.57) rotate(-3.5)"/><rect class="cls-46" x="668.13" y="1603.91" width="12" height="112.09" transform="translate(-100.03 44.23) rotate(-3.5)"/><rect class="cls-46" x="580.42" y="1609.27" width="12" height="112.09" transform="translate(-100.52 38.88) rotate(-3.5)"/><rect class="cls-46" x="492.71" y="1614.64" width="12" height="112.09" transform="translate(-101 33.54) rotate(-3.5)"/><path class="cls-23" d="M757.05,1722.84a11.71,11.71,0,0,1-2.41-2.81s-.72-2.15-1.33-3.64c-.2-.47-.38-.88-.52-1.13a21.06,21.06,0,0,1-3-6.1c-.73-2.92-.66-16.35-.66-16.35l7.27-2,6.54-2.86s13.09,13,14.09,15.67c.09.26.18.52.24.76.63,2.33.12,4.32.31,5.57.07.47.43,5.1-.57,6.07a4.52,4.52,0,0,1-4.17,1.42s-2.83,2.51-5.37,2.61a6.76,6.76,0,0,1-5.73,1.63S758.93,1723.8,757.05,1722.84Z"/><path class="cls-44" d="M817,1593.46s14.15-.9,7.12-22.35c-9.5-28.93-37.71.37-97.31,24.76,0,0-16.69,6.75-11.91,24.59s25.93,74.51,27.32,80.21l23.88-13.13s-10.88-28.13-13.78-42.85-5-28.41-5-28.41Z"/><path class="cls-47" d="M941.84,1626.79s-11.69,4.73-11.16,6.71a3.22,3.22,0,0,0,1.92,2.38l-3.93,4.13s-1.06,4.2,3.83,4.13c0,0-1.4,3.82,3.31,3.19,0,0,.2,2.93,2.44,3s9.63-3.26,9.63-3.26,1.61-1.55-.19-4.19a4.23,4.23,0,0,0-.51-4.79,4.86,4.86,0,0,0-1.26-4.79s1.36-5.18-2.84-6.94C943.08,1626.38,942.34,1626.59,941.84,1626.79Z"/><path class="cls-23" d="M921.67,1632.67s8.62.77,13.14,3.26c1,.57,1.92,1.3,1.78,2.46s-2,2.44-5.75,2.29a31.71,31.71,0,0,0-8.66,1.39S918.36,1640.79,921.67,1632.67Z"/><path class="cls-23" d="M865.34,1506.23s6.58,12.26,3.3,14.15c-2.71,1.57,3.14,13.6,3.9,15.56s-4.91,3.38-6.11,4.64-4.81,16.8-9.48,17.25-25.68-6.9-31.39-12.87-10.35-32.87-6.5-44.2S853.74,1484.82,865.34,1506.23Z"/><path class="cls-48" d="M866.73,1508.74s2.5-8.9-9.72-18.73-30.85,2-33.18,3.81c-2.08,1.61-14.5,11.91-9.76,27,7.92,25.16,7.84,24.11,7.84,24.11s3.42-15.18,8-16.23c5-1.15,11.79-1.94,11.79-1.94s-4.29-11.48,2.46-13.09S859.91,1506.19,866.73,1508.74Z"/><path class="cls-23" d="M838.79,1527.55c-.33-1.34-1.86-7.35-6.56-6.46s-3.14,8.28.49,12.61S840.65,1535,838.79,1527.55Z"/><path class="cls-48" d="M822.84,1494.62s-16.31,3.34-13.65,15.68,9.9,26.19,10.94,29.08S822.84,1494.62,822.84,1494.62Z"/><path class="cls-49" d="M840.89,640.1a73.17,73.17,0,0,0-11.18,13.11c-5.29,7.93-19.34,8.36-19.94,19.19s19.1,11.17,29.44,7.64,11.91-14.11,18.16-16.75,9.5-4.79,9-10-3.94-13.55-3.94-13.55a42.7,42.7,0,0,1-6.17,1.49A50.64,50.64,0,0,1,840.89,640.1Z"/><path class="cls-22" d="M911.79,346.53s-4,23.58-7.16,39.15h0c-1.3,6.31-2.47,11.31-3.19,12.89-.91,2-8.36,10-17.46,19.34-16,16.45-37.09,37.17-37.09,37.17l-8.26-15.67s18.76-22,31.47-36.65c5.88-6.79,10.47-12,11.31-12.76,2.66-2.38,5.74-25.8,10.08-45.11s13-30,13-30Z"/><path class="cls-23" d="M884,417.91c-16,16.45-37.09,37.17-37.09,37.17l-8.26-15.67s18.76-22,31.47-36.65C874,404.67,881.15,409.23,884,417.91Z"/><path class="cls-49" d="M986.45,633.65s5.43,6,8.64,9.64,15.5,10.14,15.56,20.94c.08,11.71-9.06,10.69-17.19,10.26s-14.74-6-18.17-12.68-12.53-8.37-13.17-13.72,4.22-15,4.22-15Z"/><path class="cls-50" d="M967.39,623.14l-1,10s17,7.39,20.11.54l-.73-8.88Z"/><path class="cls-50" d="M841.82,632.89l-.93,7.21a35.55,35.55,0,0,0,21.56-.32l.23-6.42Z"/><path class="cls-22" d="M987.41,451.89c.59,2.1-108.63,0-108.63,0S909,429.9,911,424s-7.69-41.12-9-52.59c-1-9.17-3.53-50.24,2.52-56.51,6.32-6.55,29.09-13.43,29.09-13.43l33.2,1.24a51.68,51.68,0,0,1,9.39,3c3.92,1.82,26.32,9.8,29.95,21s-22.35,47.16-22.35,47.16,0,1.62-.12,4.27h0c-.11,3.54-.25,8.91-.39,14.73-.17,7.54-.33,15.85-.33,21.92C983,429,986.82,449.79,987.41,451.89Z"/><path class="cls-51" d="M987.41,451.89s14.86,21.82,15.07,36.72S997,544.81,996.55,553s-8.11,76.37-8.11,76.37-5.94,5.53-23.78-1.4c0,0-3.93-64.66-4.35-71.59s-.42-38.81-4.41-43.43-28.11-19.09-31.26-21.82-58,10.36-63.72,11.85c-14.87,3.86-8.09,29.74-4.8,41.35,5.51,19.41,10.32,89.52,10.32,89.52s-10.6,4.51-28.34.7c0,0-34.85-126.59-36-139.18s-1.67-33.35,84.21-49.12Z"/><path class="cls-23" d="M942.72,229.37s-28.82-6.5-22.23,29.76,13.51,39.12,30.89,31.61,15.83-30.74,16.71-42.13S951.91,229.76,942.72,229.37Z"/><path class="cls-23" d="M935.09,310.8S947.86,324.33,968,312c0,0-4.51-29.33-2.14-43.61s-26.32,22.13-26.32,22.13c.38.2.63,1.56.69,3.5a39.37,39.37,0,0,1-.3,5.81C939.36,304.62,937.89,309.64,935.09,310.8Z"/><path class="cls-23" d="M958.17,254.32c.38-3.2,6.71-4.37,7.22.43s-2.88,13.21-5.28,12.39S957.65,258.74,958.17,254.32Z"/><path class="cls-52" d="M966.68,267.22s-.74-11.43-4.91-11.78-4.82,4.24-4.82,4.24l-4.21.8s1.33-10-2.84-11.77-27,5.52-30.35,2.58-1.77-23.26,4.28-26,22.76-9,35-.72c0,0,9.54-1.09,11,6.61S969.28,261.49,966.68,267.22Z"/><path class="cls-24" d="M940,299.87c20.81-6.41,22.37-18.94,22.4-19.14-6.86,11.78-22.1,13.33-22.1,13.33A39.37,39.37,0,0,1,940,299.87Z"/><path class="cls-23" d="M976.54,305.85s-15.23,30.33-39.85,28.37-4.2-32.44-3.08-32.73S958.86,295.2,976.54,305.85Z"/><path class="cls-22" d="M866.29,450.35s75.42,9.3,121.12,1.54L900.09,441S899.58,443.21,866.29,450.35Z"/><path class="cls-23" d="M922.7,437.55l-5.62,2.84s1.28,8.93,4.36,11.63l6.3-1.61S926.43,440.62,922.7,437.55Z"/><path class="cls-22" d="M1010,419.27c-1.12,1.3-16,7.26-32.7,13.72h0c-22.89,8.81-48.7,17.15-48.7,17.15l-5.88-12.59s27-14.69,45.3-25c8.63-4.86,15.3-8.75,16.24-9.65,2.94-2.79,3.7-7.28,1.54-15.1s-7.13-43.78-7.69-48,1.4-15.39,11.89-15.95,15.83,2.41,15.83,2.41,2.63,1.09,4.59,26.55S1012.64,416.19,1010,419.27Z"/><path class="cls-53" d="M983.68,378.11h0c-.11,3.54-.25,8.91-.39,14.73-10.24-25.1-4.32-45.13-4.22-45.46C978,354.19,983.6,377.78,983.68,378.11Z"/><path class="cls-53" d="M904.63,385.68h0c-1.3,6.31-2.47,11.31-3.19,12.89-3.5-16.93-.35-38.6-.35-38.6C901.57,370.33,904.63,385.68,904.63,385.68Z"/><path class="cls-23" d="M977.28,433h0c-22.89,8.81-49.54,17.42-49.54,17.42l-5-12.86s27-14.69,45.3-25C968,412.55,974.65,415.79,977.28,433Z"/><polygon class="cls-54" points="921.07 451.16 813.87 449.58 867.99 477.07 921.07 451.16"/><polygon class="cls-55" points="867.99 477.07 921.07 456.51 921.07 451.16 863.8 471.82 867.99 477.07"/><path class="cls-23" d="M918.3,440.59s-6.7-1-11.33-2.12c-3.58-.84-12.49.31-14.76,2.61s-9.48,18.32-10.84,19.29.69,3.24,3.09,2.11c0,0,2.2,7,7.63,4.38s9.12-8.35,12-9.36,19.4-6.1,19.4-6.1S922.56,438.88,918.3,440.59Z"/><path class="cls-23" d="M893.85,440a48.13,48.13,0,0,0-5.43,3c-1.12.93-5.67,4.34-6.77,5.14s1.66,3.08,9.8-.44S893.85,440,893.85,440Z"/><polygon class="cls-56" points="867.99 477.07 836.1 390 733.3 391.68 763.69 471.91 867.99 477.07"/><path class="cls-57" d="M803.21,428.52c3.14,6.27,2.19,13.1-2.12,15.25s-10.34-1.18-13.47-7.45-2.19-13.1,2.11-15.26S800.07,422.25,803.21,428.52Z"/><path class="cls-58" d="M1371.7,1489.9s17.09,8.35,12.86,31.09-6.09,25.81-1.37,34.69,10.31,46.79,6,54-52.64-31.57-59.35-64.08,4.25-47,8.13-52.37S1356.61,1482.24,1371.7,1489.9Z"/><path class="cls-59" d="M1376.43,1572s8.7,1.77,13.58,9c3.4,5,3.68,16.11,4.17,18.21s7,25.77,7,25.77L1383,1637.06Z"/><path class="cls-60" d="M1443.37,1976.9s11.82,15.92,10.2,18.44-14,2.88-21.62,0-7.75-21.54-11.17-29.55c-1.44-3.36,1.63-13.26,5.94-14s9,1.39,9,1.39S1431.25,1964.49,1443.37,1976.9Z"/><path class="cls-23" d="M1435.81,1953.07a75.57,75.57,0,0,1,3.39,13.25c.76,5.37,8.43,16.77,8.07,18.21s-10.1,2.75-14.06-1-6.51-14.52-7.39-21a51.35,51.35,0,0,0-1.84-9S1432,1949.11,1435.81,1953.07Z"/><path class="cls-60" d="M1340.46,1977.17s11.4,15.65,9.77,18.17-14,2.88-21.62,0-7.75-21.54-11.17-29.55c-1.43-3.36,1.63-13.26,6-14s9.37,1.54,9.37,1.54S1328.34,1964.76,1340.46,1977.17Z"/><path class="cls-23" d="M1332.76,1953.35a107,107,0,0,0,2.34,12.62c1.44,5.22,9.19,17.12,8.83,18.56s-10.09,2.75-14.06-1-7-14.48-7.39-21a34.48,34.48,0,0,1,.91-10.76S1329,1949.39,1332.76,1953.35Z"/><path class="cls-23" d="M1389.71,1694.22s10.14,47.2,12.47,59.08,8.86,69.44,9.56,79.23,10.58,46.66,10.12,50.15,14.66,73.71,14.66,73.71-5.17,4.16-10.61.37c-2.8-1.94-33.19-65.73-33.19-83.2,0-24.16-17.86-55.69-20.17-61.1-21.41-50.2-17.19-65.55-20-68.81s-3,2-4.67,9.23-5.12,69.67-7.22,77.6-.47,34.71-1.63,48.23-6.28,74.64-6.28,74.64-4,6.21-9.52.17c-1.2-1.3-9.6-68.1-9.83-84.18s-.48-38.25-.93-45.2c-4.32-66.63-14.93-76.14,1.78-123.29C1345.55,1612.56,1389.71,1694.22,1389.71,1694.22Z"/><path class="cls-60" d="M1321.57,1681s-28.9,40.45-16.46,126.51c0,0,68.56,9.32,105.29-10.79,0,0-15.19-88.72-20.69-102.53S1321.57,1681,1321.57,1681Z"/><polygon class="cls-60" points="1420.46 1964.39 1420.46 1981.05 1422.62 1981.05 1422.62 1968.17 1420.46 1964.39"/><polygon class="cls-60" points="1317.12 1964.39 1317.12 1981.05 1319.28 1981.05 1319.28 1968.17 1317.12 1964.39"/><path class="cls-41" d="M1360.36,1566.08s10.65,5,14.35,5.77,18,19.37,20.56,26.18,0,17-5.18,29-.29,16-2.66,28-4.44,37.34-4,44-59.82,7.91-73.58-4.22c0,0,13.83-20.7,15.6-23.66s.3-19.08-1.33-23.22-12.45-39.36-12.45-39.36-8.86-27-.86-33.26c7-5.4,25.89-7.32,29.3-8.51S1353.41,1565.05,1360.36,1566.08Z"/><path class="cls-61" d="M1363.77,1589.82l6.47-7.58-5.62-20A131.44,131.44,0,0,0,1363.77,1589.82Z"/><path class="cls-23" d="M1365.45,1553.79s-.29,2.67-.64,6.36c-.15,1.64-.31,3.48-.46,5.37a119.79,119.79,0,0,0-.58,14.17s-11.07,11.09-23.65-12.94c0,0,5.29-9.91,1.31-23.41S1365.45,1553.79,1365.45,1553.79Z"/><polygon class="cls-23" points="1363.77 1579.69 1363.77 1589.82 1351.03 1580.3 1363.77 1579.69"/><polygon class="cls-61" points="1363.77 1589.82 1358.48 1583.28 1340.67 1565.53 1334.91 1571.07 1363.77 1589.82"/><path class="cls-59" d="M1338.2,1567.22s14.94,22.68,15.66,32.67-5.56,84.66-10.58,108.66-41.29-2.71-41.29-2.71,24.38-39.45,15-71-12.76-44.22-12.76-44.22,3.22-17.59,14.63-20.06C1328.88,1568.35,1338.2,1567.22,1338.2,1567.22Z"/><path class="cls-59" d="M1396.25,1601.06s2.7,9.54-7.8,30.62c0,0,.16,27,.46,35.41s6.26,38.75,6.26,38.75l-14.35,7.64a2.93,2.93,0,0,1-4.39-2.88c2.94-24.26,12.5-116.28-8.16-141l8.29,2.45S1391.3,1584.09,1396.25,1601.06Z"/><polygon class="cls-62" points="1370.24 1582.24 1378.39 1584.49 1364.62 1562.29 1370.24 1582.24"/><polygon class="cls-62" points="1358.48 1583.28 1351.03 1593.04 1335.74 1567.55 1341.07 1564.49 1358.48 1583.28"/><rect class="cls-63" x="1378.86" y="1618.47" width="2.7" height="31.89" transform="translate(-716.37 1209.4) rotate(-38.36)"/><path class="cls-23" d="M1368,1644.92a5.73,5.73,0,0,0,3.13-.9c2.15-1.62,2.92-5.6,6.7-5.31s5.55,12.17,4.6,14.41-6.21,3.38-14,1.83S1368,1644.92,1368,1644.92Z"/><path class="cls-23" d="M1376.58,1638.79a119.61,119.61,0,0,1,11.72-3.21c5.52-1.2,12.1-1.59,12.74-.63s-5.37,2-10.77,3.52c-5,1.41-3.79,1.93-3.79,1.93s-.32-.17,5.35-.7c6.11-.57,12.4-.56,13,.66.3.6.09,1-2.11,1.56,1.32-.06,1.51.28,1.56.81.26,2.75-8.65,4.94-12.18,5.81,2.72-.65,4.77-.85,3.79,1-1.12,2.11-13.82,4.66-18.31,6C1372.71,1657,1376.58,1638.79,1376.58,1638.79Z"/><path class="cls-59" d="M1321,1570.92c-3.75-1.21-14.74,2.69-16.6,14s-2.6,23.78-4.33,29.85-6.16,33-2.44,35.19,10.75,4.27,20.62,4.27c10.2,0,49.72,1.77,49.72,1.77l2.48-14s-15-.78-22.79-2c-6.92-1-16.52-4-27.82-5.23,0,0,2.4-16.66,4.13-21.37S1337.83,1576.37,1321,1570.92Z"/><polygon class="cls-23" points="1393.28 1643.01 1395.13 1647.52 1391.16 1644.68 1393.28 1643.01"/><polygon class="cls-64" points="1371.5 1666.56 1411.32 1658.66 1440.84 1595.48 1398.35 1599.94 1371.5 1666.56"/><path class="cls-23" d="M1416.28,1647.94a32.66,32.66,0,0,0,4.13-4.87c1.94-2.83,8.3-13.66,7.72-14.34s-10-.91-11.74.63,1.69,2.14,1.69,2.14-5.17.53-4.8,2,3.48,1.06,3.48,1.06-4.16.79-3.53,2.07,2.63,1.27,2.63,1.27-3.68.46-3.23,1.86,6.29,2.72,5.51,3.88A27.31,27.31,0,0,0,1416.28,1647.94Z"/><path class="cls-18" d="M1369.22,1492.42s24.81,7.8,11.34,50.61-47.35-5-43.8-31S1369.22,1492.42,1369.22,1492.42Z"/><path class="cls-58" d="M1383.1,1517.4a56,56,0,0,1-33,13.61s-7.93,9.3-8.54,13c0,0-18.41-31.38,4.22-50.19S1391.42,1509.65,1383.1,1517.4Z"/><path class="cls-18" d="M1350.39,1531.86c-.16-3.11-2.08-10.2-6.71-8.22s.28,16.43,3.35,15.54C1347,1539.18,1350.77,1539.23,1350.39,1531.86Z"/><path class="cls-24" d="M1364.81,1560.15c-.15,1.64-.31,3.48-.46,5.37h0c-14.34-7.08-16.54-17.29-16.6-17.61C1358,1561.12,1364.81,1560.15,1364.81,1560.15Z"/><path class="cls-22" d="M1657.58,1606s31.3,51.61,42.26,48.91c5.07-1.24,21.87-14.19,28.22-22.42,2.09-2.71,4.14-5.55,6.09-8.37h0c7.78-11.24,13.88-22,13.88-22s30.19-30.53,11.72-42.55c0,0-14.78,2.06-20.93,8.66s-12.48,19.38-14.09,22.9-22.92,28.89-24.09,29.63-9.22-3.62-14.52-9.54c-7.81-8.72-16.29-20.49-16.29-20.49Z"/><path class="cls-65" d="M1620.68,1416.47l-73.58-23.94L1464.66,1539l58.59,50.5a396.08,396.08,0,0,0-9.56,47.2l187.4,30.49a206.52,206.52,0,0,1,92-148.68l-123.83-144.87A392.08,392.08,0,0,0,1620.68,1416.47Z"/><path class="cls-66" d="M1690.52,1963.85s-10.62,8.68-19.55,10.61-13.62,6.5-13.69,11.8,25.7,8.8,35.92,3.45c15.26-8,16.81-5.57,18.5-9.55s.33-14.54.44-15.81C1712.28,1962.78,1690.52,1963.85,1690.52,1963.85Z"/><path class="cls-20" d="M1691.25,1961a34.66,34.66,0,0,0-1,4.42c.17.09,20.12,2.32,19.52-1.15-.49-2.82-1.19-5.88-1.19-5.88Z"/><path class="cls-66" d="M1817.44,1970.8s-6.6,10-15,12-11.32,5.13-11.73,10.12,19.5,11.53,33.48,2.76c9.19-5.76,12.61-5.43,14.46-9.09s.45-14,.64-15.16C1839.52,1970,1817.44,1970.8,1817.44,1970.8Z"/><path class="cls-21" d="M1819.67,1967.16a37.52,37.52,0,0,0-.26,4.31c.16.09,18.58,3.35,18.47,0a25.75,25.75,0,0,0-1.17-5.92Z"/><path class="cls-17" d="M1743.6,1713.07s-25,62.1-32.24,83.19c-9.47,27.75-14.68,52.19-15.87,65.49-1.5,16.73-7.37,95.69-8.42,100.58s28.1,3.25,28.1,3.25,16.4-99.56,20.86-117.38c4.16-16.59,43.53-91.85,47.32-87.32s16.4,81.57,19.21,94.65,10.34,116.09,10.34,116.09,25.59,4.11,30.74,0c0,0-4-91.85-5.83-116.38-.68-9.35,5.92-111.92-9.89-153.29C1819.56,1680.09,1743.6,1713.07,1743.6,1713.07Z"/><path class="cls-22" d="M1736.63,1730s53.26,16.15,100.17,10.06c0,0-10.26-62.09-8.37-77.5,1.33-11.07,5.81-35.7,9.49-55.18,1.54-8.13,2.91-15.38,3.89-20.36.84-4.38,1.37-7,1.37-7s-2-9.35-6.19-12.89-39.57-9.71-39.57-9.71l-26.8-.21s-21.65,4.45-24.49,6.94c-3.05,2.66-9.11,29.46-9.46,36.68s1.54,37,4.59,48.25S1738.56,1714.4,1736.63,1730Z"/><rect class="cls-67" x="1741.8" y="1608.49" width="10.81" height="16.51" transform="translate(3494.42 3233.49) rotate(180)"/><path class="cls-23" d="M1765.86,1558.16s-5.09,7.58,2,8.87,20.82-.29,28.73-9.9C1796.6,1557.13,1775.84,1555.26,1765.86,1558.16Z"/><path class="cls-68" d="M1793,1633.67s36.68-20.84,44.88-26.34c1.54-8.13,2.91-15.38,3.89-20.36C1841.81,1587,1816.83,1597.1,1793,1633.67Z"/><path class="cls-23" d="M1713.32,1601.16a5.84,5.84,0,0,1-1.71-3.23c-.24-3,2.86-6.77-.51-9.59s-15.94,5.18-17.27,7.72,1.91,7.65,9.72,12.67S1713.32,1601.16,1713.32,1601.16Z"/><path class="cls-23" d="M1712.09,1589.45a118.83,118.83,0,0,0-6.58-12c-3.39-5.38-8.53-11.35-9.83-10.73-3,1.43,2.34,6,5.31,11.56,2.75,5.11,1.49,4.44,1.49,4.44s.42.14-3.72-4.85c-4.46-5.35-9.62-10.4-11.27-9.93-.8.23-1,.72.27,2.92-1-1.11-1.5-1-2-.61-2.79,2,2.44,10.86,4.52,14.38-1.61-2.7-3.11-4.5-4-2.26-1.06,2.57,7,14.79,9.36,19.45C1698.2,1606.94,1712.09,1589.45,1712.09,1589.45Z"/><path class="cls-22" d="M1837.52,1567.42c-4-3.28-17.52-3.79-27.68,6.45-7.17,7.21-13.62,15-16.34,18.29-5.11,6.16-16.15,22.8-19.75,22.28s-29.64-9.47-31.56-9.79-29.38-11.09-29.38-11.09l-9,16.9s54.07,25.88,59,27.55,15.34,7.87,26.49-1.3c10.59-8.72,30.89-24.6,36.52-29.39C1827.92,1605.54,1855.34,1582,1837.52,1567.42Z"/><path class="cls-23" d="M1765.77,1562.15s6.64,5,28.87-4.8a61.24,61.24,0,0,1,2.18-26.23c4.36-14.23-28.69,14.72-28.69,14.72.36.26.42,1.68.22,3.66,0,.13,0,.26,0,.39a38.4,38.4,0,0,1-.89,4.86c-.05.21-.1.42-.16.64C1766,1560.15,1765.77,1558,1765.77,1562.15Z"/><path class="cls-24" d="M1767.41,1554.75h0c15.92,2,24.61-15.12,24.86-15.63-10.9,15.9-24,10.77-24,10.77h0A38.4,38.4,0,0,1,1767.41,1554.75Z"/><path class="cls-18" d="M1798.71,1527.91v0a74.59,74.59,0,0,1-8.49,14c-11,14.17-36.79,14.52-37.17-24.37a60.17,60.17,0,0,1,2.33-18.19c5.27-17.26,17.65-20.13,17.65-20.13,9.15-.5,25.17,1.76,30.5,13.67C1807.31,1501.39,1804.57,1515.42,1798.71,1527.91Z"/><path class="cls-19" d="M1798.71,1527.91v0s-1.32.35-6.08-9.25c-.95-1.92-1.68-.55-2.1-1.4l-7.57-3s7.17-10.23-2.63-13.7c-10-3.55-25-1.25-25-1.25-7.78-34,19.38-22,19.38-22,9.63,1.81,23.44,3.63,28.77,15.54C1807.31,1501.39,1804.57,1515.42,1798.71,1527.91Z"/><path class="cls-18" d="M1789,1511.46c.56-2.6,5.7-4.84,7.88.75s-5.12,11.51-7,10.29S1788.05,1515.77,1789,1511.46Z"/></svg>